<svg viewBox="0 0 24 24" xmlns="http://www.w3.org/2000/svg"><g><path d="M9.19 13.59c1.98 2.65 5.74 3.19 8.39 1.21 .22-.18.44-.36.64-.57l2.99-3c2.31-2.4 2.24-6.2-.14-8.5 -2.33-2.25-6.02-2.25-8.34 0l-1.74 1.72c-.4.38-.4 1.02-.01 1.41 .38.39 1.02.39 1.41 0l1.72-1.71c1.53-1.49 3.99-1.49 5.54.01 1.58 1.53 1.63 4.06.09 5.65l-2.99 2.98c-.14.13-.29.26-.44.37 -1.77 1.32-4.28.96-5.6-.81 -.34-.45-.96-.54-1.4-.21 -.45.33-.54.95-.21 1.39Z"/><path d="M14.8 10.4c-1.99-2.66-5.75-3.2-8.4-1.22 -.23.17-.45.35-.65.56l-3 2.99c-2.32 2.39-2.25 6.19.13 8.49 2.32 2.24 6.01 2.24 8.33 0l1.72-1.73c.39-.4.39-1.03 0-1.42 -.4-.4-1.03-.4-1.42 0L9.8 19.78c-1.54 1.48-4 1.48-5.55-.02 -1.59-1.54-1.64-4.07-.1-5.66l2.98-2.99c.13-.14.28-.27.43-.38 1.76-1.33 4.27-.97 5.59.8 .33.44.95.53 1.39.2 .44-.34.53-.96.2-1.4Z"/></g></svg>