<svg width="59" height="59" viewBox="0 0 59 59" fill="none" xmlns="http://www.w3.org/2000/svg">
<path d="M28.2622 49.0363L26.8623 55.9459L22.3735 55.0365L22.5383 54.223L26.0372 54.9319L26.478 52.7561L23.1752 52.0869L23.342 51.2637L26.6448 51.9328L27.1075 49.6492L23.6086 48.9403L23.7734 48.1269L28.2622 49.0363Z" fill="#B9B9B9"/>
<path d="M13.8931 48.1429L13.0893 47.5313L17.7254 44.9394L18.4496 45.4904L17.1719 50.6377L16.3283 49.9958L17.3773 46.107L13.8931 48.1429Z" fill="#B9B9B9"/>
<path d="M9.55455 38.199L11.1706 41.2471C12.0492 40.6983 12.2652 40.0027 11.8187 39.1604C11.5564 38.6657 11.157 38.3039 10.6207 38.0752L11.1028 37.4687C11.3798 37.5784 11.6464 37.7539 11.9027 37.9954C12.159 38.2368 12.3683 38.5106 12.5307 38.8169C12.8961 39.506 12.9876 40.1555 12.8053 40.7652C12.6199 41.3691 12.1797 41.8553 11.4847 42.2238C11.0429 42.458 10.606 42.5802 10.1738 42.5905C9.73849 42.595 9.34384 42.4911 8.98985 42.2788C8.63273 42.0607 8.348 41.7514 8.13565 41.3508C7.82649 40.7677 7.77295 40.2113 7.97503 39.6816C8.17399 39.146 8.60626 38.7018 9.27183 38.3489L9.55455 38.199ZM8.78007 40.9865C8.9612 41.3282 9.21537 41.5443 9.5426 41.6349C9.86082 41.7227 10.2311 41.6811 10.6535 41.51L9.44965 39.2394C9.0585 39.4694 8.80686 39.7348 8.69475 40.0357C8.57363 40.3339 8.60207 40.6508 8.78007 40.9865Z" fill="#B9B9B9"/>
<path d="M5.90532 30.447L6.02521 31.0481C6.119 31.5212 6.29915 31.8517 6.56566 32.0396C6.83152 32.221 7.15352 32.2929 7.53166 32.2554L10.2284 31.988L10.3281 32.9931L5.47189 33.4745L5.37521 32.4993L6.22106 32.4155C5.62487 32.2133 5.25747 31.7171 5.11883 30.9269L5.06638 30.6005L5.90532 30.447Z" fill="#B9B9B9"/>
<path d="M6.46304 21.7652L6.74317 20.7948L12.3444 25.4406L12.0615 26.4206L10.4525 25.0714L5.32032 25.7236L5.61432 24.7051L9.61956 24.2793L6.46304 21.7652Z" fill="#B9B9B9"/>
<path d="M15.3564 16.3694C14.8889 16.8632 14.3745 17.1932 13.8131 17.3594C13.2563 17.5208 12.6879 17.5152 12.1079 17.3424C11.5276 17.1602 10.9712 16.817 10.4386 16.3128C9.90612 15.8086 9.53547 15.2741 9.32668 14.7092C9.11764 14.1348 9.08091 13.5676 9.21651 13.0074C9.35185 12.4378 9.65328 11.9061 10.1208 11.4123C10.4508 11.0638 10.8136 10.7921 11.2091 10.5974C11.5998 10.3981 11.9953 10.2906 12.3957 10.2749L12.7001 11.0589C12.277 11.1082 11.9096 11.2102 11.5979 11.3649C11.2908 11.5147 11.0088 11.7252 10.7522 11.9963C10.248 12.5289 10.0302 13.1031 10.0989 13.7189C10.1722 14.33 10.5284 14.938 11.1674 15.5431C11.8064 16.1481 12.4354 16.4728 13.0544 16.5172C13.6731 16.5521 14.2346 16.3034 14.7388 15.7708C14.9955 15.4997 15.1902 15.2068 15.3231 14.8919C15.4606 14.5722 15.5423 14.1997 15.5684 13.7746L16.3678 14.0357C16.3741 14.4364 16.2908 14.8395 16.1179 15.2451C15.9403 15.6461 15.6864 16.0208 15.3564 16.3694Z" fill="white"/>
<path d="M22.8578 11.3997C22.4019 11.5498 21.9675 11.584 21.5546 11.5024C21.148 11.4187 20.7903 11.2276 20.4816 10.9292C20.177 10.6223 19.9455 10.2283 19.7871 9.74705C19.6266 9.25945 19.5787 8.80496 19.6435 8.38356C19.7126 7.95375 19.8858 7.5844 20.1631 7.27553C20.4468 6.96458 20.8166 6.73405 21.2725 6.58396C21.7285 6.43387 22.1597 6.4007 22.5663 6.48443C22.9792 6.56608 23.3379 6.76032 23.6424 7.06715C23.9512 7.36555 24.1859 7.75855 24.3464 8.24615C24.5048 8.72741 24.5495 9.18294 24.4804 9.61276C24.4156 10.0342 24.2414 10.4003 23.9577 10.7113C23.6804 11.0202 23.3138 11.2496 22.8578 11.3997ZM22.6077 10.6398C23.032 10.5002 23.3091 10.2546 23.439 9.90297C23.5752 9.5493 23.5547 9.10334 23.3775 8.56509C23.2024 8.03317 22.955 7.66542 22.6354 7.46184C22.3136 7.25193 21.9437 7.21576 21.5258 7.35335C21.1079 7.49093 20.8318 7.73972 20.6977 8.09972C20.5614 8.45339 20.5808 8.89619 20.7559 9.42811C20.9331 9.96636 21.1784 10.3383 21.4918 10.544C21.8114 10.7476 22.1834 10.7795 22.6077 10.6398Z" fill="white"/>
<path d="M34.4141 5.77049L33.7267 10.6018L32.7564 10.4638L32.8677 9.68165C32.6765 9.93725 32.4352 10.1184 32.1439 10.2251C31.8593 10.3327 31.5519 10.3631 31.2219 10.3161C30.0471 10.149 29.5517 9.41856 29.7358 8.12492L30.157 5.16474L31.1569 5.30702L30.7371 8.2573C30.6817 8.64671 30.7201 8.94509 30.8522 9.15243C30.9843 9.35978 31.2153 9.48693 31.5454 9.53389C31.9348 9.5893 32.2628 9.50803 32.5295 9.2901C32.8028 9.0731 32.969 8.75669 33.0282 8.34088L33.4142 5.62821L34.4141 5.77049Z" fill="white"/>
<path d="M43.1392 9.41332C44.1016 10.0727 44.2116 10.9442 43.4693 12.0276L41.7567 14.5271L40.9235 13.9563L42.6079 11.498C42.8415 11.157 42.9442 10.8596 42.916 10.606C42.8933 10.356 42.7389 10.1331 42.453 9.93715C42.1175 9.70729 41.7764 9.62715 41.4297 9.69671C41.0831 9.76627 40.7891 9.97704 40.548 10.329L38.9766 12.6223L38.1435 12.0515L40.9018 8.02577L41.7184 8.58534L41.2776 9.22879C41.5754 9.07724 41.8858 9.01924 42.209 9.05478C42.5321 9.09032 42.8422 9.20984 43.1392 9.41332Z" fill="white"/>
<path d="M46.6892 19.2785C46.7734 19.4067 46.8642 19.5265 46.9614 19.6381L46.2905 20.0192C46.1767 19.8946 46.0703 19.7571 45.9715 19.6066C45.6237 19.0774 45.4918 18.5976 45.576 18.1673C45.6695 17.739 45.9613 17.3637 46.4516 17.0415L48.4239 15.7454L47.9021 14.9515L48.554 14.5231L49.0757 15.317L50.3042 14.5097L50.8589 15.3538L49.6304 16.1611L50.3663 17.2809L49.7145 17.7093L48.9785 16.5894L47.0397 17.8636C46.4436 18.2553 46.3268 18.727 46.6892 19.2785Z" fill="white"/>
<path d="M55.6806 26.3265L48.7494 27.6155L48.5666 26.6324L49.3924 26.4788C49.0772 26.3883 48.8154 26.22 48.6069 25.9739C48.405 25.7267 48.2705 25.4228 48.2034 25.0623C48.1266 24.6494 48.1626 24.2596 48.3114 23.8929C48.4614 23.5327 48.7094 23.2255 49.0555 22.9713C49.4027 22.7236 49.8221 22.5541 50.3137 22.4627C50.8118 22.37 51.2641 22.3775 51.6706 22.485C52.0784 22.599 52.4137 22.7977 52.6766 23.0811C52.9395 23.3645 53.1099 23.7159 53.188 24.1354C53.255 24.4958 53.2349 24.8251 53.1275 25.1231C53.028 25.4264 52.8507 25.6763 52.5957 25.8729L55.4959 25.3336L55.6806 26.3265ZM49.0338 25.152C49.1143 25.5846 49.3233 25.8882 49.6609 26.0627C49.9997 26.2438 50.4411 26.2838 50.9851 26.1826C51.5291 26.0815 51.9267 25.8855 52.1777 25.5947C52.43 25.3104 52.5159 24.952 52.4355 24.5194C52.355 24.0868 52.1448 23.7767 51.8048 23.589C51.4725 23.4067 51.0376 23.3655 50.5002 23.4655C49.9627 23.5654 49.5625 23.7653 49.2996 24.0651C49.0432 24.3637 48.9546 24.726 49.0338 25.152Z" fill="white"/>
<path d="M48.09 34.3925C48.2247 33.9318 48.4426 33.5544 48.7438 33.2604C49.0432 32.9729 49.4033 32.7864 49.8241 32.701C50.2495 32.6239 50.7054 32.6564 51.1917 32.7985C51.6844 32.9425 52.086 33.1606 52.3965 33.4528C52.7116 33.7532 52.9178 34.1052 53.0152 34.5087C53.1107 34.9186 53.0911 35.354 52.9565 35.8147C52.8218 36.2754 52.6048 36.6496 52.3055 36.9371C52.0043 37.2311 51.641 37.4167 51.2156 37.4938C50.7947 37.5791 50.338 37.5498 49.8452 37.4058C49.3589 37.2637 48.9582 37.0424 48.6432 36.742C48.3327 36.4498 48.1297 36.0988 48.0342 35.6889C47.9368 35.2853 47.9554 34.8532 48.09 34.3925ZM48.8579 34.6169C48.7326 35.0456 48.778 35.4131 48.9941 35.7194C49.2084 36.032 49.5874 36.2678 50.1314 36.4268C50.6689 36.5839 51.1121 36.5884 51.461 36.4403C51.8162 36.2941 52.0556 36.0098 52.179 35.5875C52.3024 35.1651 52.2538 34.7967 52.0332 34.4822C51.819 34.1695 51.4431 33.9347 50.9056 33.7776C50.3617 33.6186 49.9162 33.61 49.5692 33.7517C49.2203 33.8998 48.9832 34.1882 48.8579 34.6169Z" fill="white"/>
<path d="M44.0363 48.9959L43.297 49.6693L41.3934 44.8023L42.0662 44.1895L45.3699 45.901L43.9735 42.4522L44.6537 41.8327L49.3149 44.188L48.5386 44.895L45.0914 43.0707L46.5795 46.6795L45.9954 47.2114L42.5274 45.379L44.0363 48.9959Z" fill="white"/>
<path d="M34.1094 53.4248C32.964 53.6464 32.2665 53.1124 32.0171 51.823L31.4417 48.8481L32.4333 48.6563L32.9993 51.5821C33.0777 51.9879 33.2172 52.2699 33.4175 52.4281C33.6113 52.5875 33.8784 52.6343 34.2188 52.5685C34.618 52.4912 34.9147 52.3048 35.1088 52.0093C35.3028 51.7137 35.3594 51.3565 35.2783 50.9376L34.7504 48.2081L35.742 48.0163L36.6687 52.8075L35.6968 52.9956L35.5486 52.2297C35.4473 52.5481 35.2704 52.8098 35.0181 53.0148C34.7657 53.2198 34.4628 53.3564 34.1094 53.4248Z" fill="white"/>
</svg>
