<svg width="48" height="48" viewBox="0 0 48 48" fill="none" xmlns="http://www.w3.org/2000/svg">
<path d="M23.8102 9C28.6542 9 32.0363 12.3381 32.0363 17.1218V30.8782C32.0363 35.6619 28.6542 39 23.8102 39H12.2261C7.38203 39 4 35.6619 4 30.8782V17.1218C4 12.3381 7.38203 9 12.2261 9H23.8102ZM39.916 13.758C40.794 13.3113 41.824 13.358 42.662 13.8859C43.5 14.4118 44 15.3255 44 16.3245V31.6768C44 32.6778 43.5 33.5894 42.662 34.1153C42.204 34.4016 41.692 34.5478 41.176 34.5478C40.746 34.5478 40.316 34.4463 39.914 34.2412L36.9519 32.7468C35.8559 32.1905 35.1759 31.0737 35.1759 29.8331V18.1661C35.1759 16.9235 35.8559 15.8067 36.9519 15.2544L39.916 13.758Z" fill="white"/>
</svg>
